<?xml version="1.0" standalone="no"?>
<!DOCTYPE svg PUBLIC "-//W3C//DTD SVG 1.1//EN" "http://www.w3.org/Graphics/SVG/1.1/DTD/svg11.dtd">
<svg version="1.1" xmlns="http://www.w3.org/2000/svg" viewBox="0 0 320 320" width="320" height="320"><!-- svg-source:excalidraw --><metadata></metadata><defs><style class="style-fonts">
      </style></defs><g stroke-linecap="round" transform="translate(10 10) rotate(0 150 150)"><path d="M32 0 C110.63 0, 189.25 0, 268 0 C289.33 0, 300 10.67, 300 32 C300 107.49, 300 182.98, 300 268 C300 289.33, 289.33 300, 268 300 C177.61 300, 87.23 300, 32 300 C10.67 300, 0 289.33, 0 268 C0 214.32, 0 160.64, 0 32 C0 10.67, 10.67 0, 32 0" stroke="none" stroke-width="0" fill="#0a0a0a"></path><path d="M32 0 C86.26 0, 140.51 0, 268 0 M32 0 C108.7 0, 185.39 0, 268 0 M268 0 C289.33 0, 300 10.67, 300 32 M268 0 C289.33 0, 300 10.67, 300 32 M300 32 C300 99.51, 300 167.01, 300 268 M300 32 C300 113.05, 300 194.09, 300 268 M300 268 C300 289.33, 289.33 300, 268 300 M300 268 C300 289.33, 289.33 300, 268 300 M268 300 C194.05 300, 120.09 300, 32 300 M268 300 C178.53 300, 89.07 300, 32 300 M32 300 C10.67 300, 0 289.33, 0 268 M32 300 C10.67 300, 0 289.33, 0 268 M0 268 C0 217.62, 0 167.23, 0 32 M0 268 C0 178.11, 0 88.21, 0 32 M0 32 C0 10.67, 10.67 0, 32 0 M0 32 C0 10.67, 10.67 0, 32 0" stroke="#1a1a1a" stroke-width="4" fill="none"></path></g><g stroke-linecap="round"><g transform="translate(50 30) rotate(0 50 60)"><path d="M0 0 C16.67 20, 83.33 100, 100 120 M0 0 C16.67 20, 83.33 100, 100 120" stroke="#ffffff" stroke-width="4" fill="none"></path></g></g><mask></mask><g stroke-linecap="round"><g transform="translate(150 150) rotate(0 10 -20)"><path d="M0 0 C3.33 -6.67, 16.67 -33.33, 20 -40 M0 0 C3.33 -6.67, 16.67 -33.33, 20 -40" stroke="#ffffff" stroke-width="4" fill="none"></path></g></g><mask></mask><g stroke-linecap="round"><g transform="translate(170 110) rotate(0 10 10)"><path d="M0 0 C3.33 3.33, 16.67 16.67, 20 20 M0 0 C3.33 3.33, 16.67 16.67, 20 20" stroke="#ffffff" stroke-width="4" fill="none"></path></g></g><mask></mask><g stroke-linecap="round"><g transform="translate(190 130) rotate(0 50 -50)"><path d="M0 0 C16.67 -16.67, 83.33 -83.33, 100 -100 M0 0 C16.67 -16.67, 83.33 -83.33, 100 -100" stroke="#ffffff" stroke-width="4" fill="none"></path></g></g><mask></mask><g stroke-linecap="round"><g transform="translate(150 170) rotate(0 30 60)"><path d="M0 0 C10 20, 50 100, 60 120 M0 0 C10 20, 50 100, 60 120" stroke="#ffffff" stroke-width="4" fill="none"></path></g></g><mask></mask><g stroke-linecap="round"><g transform="translate(190 250) rotate(0 30 -10)"><path d="M0 0 C10 -3.33, 50 -16.67, 60 -20 M0 0 C10 -3.33, 50 -16.67, 60 -20" stroke="#ffffff" stroke-width="4" fill="none"></path></g></g><mask></mask><g stroke-linecap="round"><g transform="translate(210 150) rotate(0 40 70)"><path d="M0 0 C13.33 23.33, 66.67 116.67, 80 140 M0 0 C13.33 23.33, 66.67 116.67, 80 140" stroke="#ffffff" stroke-width="4" fill="none"></path></g></g><mask></mask><g stroke-linecap="round"><g transform="translate(50 190) rotate(0 30 0)"><path d="M0 0 C10 0, 50 0, 60 0 M0 0 C10 0, 50 0, 60 0" stroke="#ffffff" stroke-width="4" fill="none"></path></g></g><mask></mask><g stroke-linecap="round"><g transform="translate(90 190) rotate(0 40 50)"><path d="M0 0 C13.33 16.67, 66.67 83.33, 80 100 M0 0 C13.33 16.67, 66.67 83.33, 80 100" stroke="#ffffff" stroke-width="4" fill="none"></path></g></g><mask></mask><g stroke-linecap="round"><g transform="translate(170 290) rotate(0 -30 0)"><path d="M0 0 C-10 0, -50 0, -60 0 M0 0 C-10 0, -50 0, -60 0" stroke="#ffffff" stroke-width="4" fill="none"></path></g></g><mask></mask><g stroke-linecap="round"><g transform="translate(150 30) rotate(0 -10 30)"><path d="M0 0 C-3.33 10, -16.67 50, -20 60 M0 0 C-3.33 10, -16.67 50, -20 60" stroke="#ffffff" stroke-width="4" fill="none"></path></g></g><mask></mask><g stroke-linecap="round"><g transform="translate(150 30) rotate(0 10 20)"><path d="M0 0 C3.33 6.67, 16.67 33.33, 20 40 M0 0 C3.33 6.67, 16.67 33.33, 20 40" stroke="#ffffff" stroke-width="4" fill="none"></path></g></g><mask></mask><g stroke-linecap="round"><g transform="translate(170 70) rotate(0 10 -10)"><path d="M0 0 C3.33 -3.33, 16.67 -16.67, 20 -20 M0 0 C3.33 -3.33, 16.67 -16.67, 20 -20" stroke="#ffffff" stroke-width="4" fill="none"></path></g></g><mask></mask><g stroke-linecap="round"><g transform="translate(190 50) rotate(0 10 20)"><path d="M0 0 C3.33 6.67, 16.67 33.33, 20 40 M0 0 C3.33 6.67, 16.67 33.33, 20 40" stroke="#ffffff" stroke-width="4" fill="none"></path></g></g><mask></mask></svg>